<?xml version="1.0" encoding="UTF-8" standalone="no"?>
<!DOCTYPE svg PUBLIC "-//W3C//DTD SVG 1.1//EN"
 "http://www.w3.org/Graphics/SVG/1.1/DTD/svg11.dtd">
<!-- Generated by graphviz version 9.0.0 (20230911.1827)
 -->
<!-- Pages: 1 -->
<svg width="881pt" height="161pt"
 viewBox="0.00 0.00 880.84 161.38" xmlns="http://www.w3.org/2000/svg" xmlns:xlink="http://www.w3.org/1999/xlink">
<g id="graph0" class="graph" transform="scale(1 1) rotate(0) translate(4 157.38)">
<polygon fill="white" stroke="none" points="-4,4 -4,-157.38 876.84,-157.38 876.84,4 -4,4"/>
<!-- Opponent Score -->
<g id="node2" class="node">
<title>Opponent Score</title>
<polygon fill="lightgray" stroke="black" points="152.38,-133.28 78.62,-133.28 78.62,-114.78 152.38,-114.78 152.38,-133.28"/>
<text text-anchor="middle" x="115.5" y="-120.73" font-family="Times,serif" font-size="9.00">Opponent Score</text>
</g>
<!-- 2 Rolls -->
<g id="node8" class="node">
<title>2 Rolls</title>
<ellipse fill="lightblue" stroke="black" cx="194.5" cy="-29.34" rx="29.34" ry="29.34"/>
<text text-anchor="middle" x="194.5" y="-26.04" font-family="Times,serif" font-size="9.00">2 Rolls</text>
</g>
<!-- Opponent Score&#45;&gt;2 Rolls -->
<g id="edge4" class="edge">
<title>Opponent Score&#45;&gt;2 Rolls</title>
<path fill="none" stroke="green" stroke-width="0.49" d="M122.79,-114.48C133.17,-102.3 152.74,-79.34 168.81,-60.48"/>
<polygon fill="green" stroke="green" stroke-width="0.49" points="171.37,-62.88 175.19,-53 166.04,-58.34 171.37,-62.88"/>
</g>
<!-- Player Distance to Goal -->
<g id="node3" class="node">
<title>Player Distance to Goal</title>
<polygon fill="lightgray" stroke="black" points="434.5,-133.28 334.5,-133.28 334.5,-114.78 434.5,-114.78 434.5,-133.28"/>
<text text-anchor="middle" x="384.5" y="-120.73" font-family="Times,serif" font-size="9.00">Player Distance to Goal</text>
</g>
<!-- 6 Rolls -->
<g id="node12" class="node">
<title>6 Rolls</title>
<ellipse fill="lightblue" stroke="black" cx="384.5" cy="-29.34" rx="29.34" ry="29.34"/>
<text text-anchor="middle" x="384.5" y="-26.04" font-family="Times,serif" font-size="9.00">6 Rolls</text>
</g>
<!-- Player Distance to Goal&#45;&gt;6 Rolls -->
<g id="edge2" class="edge">
<title>Player Distance to Goal&#45;&gt;6 Rolls</title>
<path fill="none" stroke="green" stroke-width="0.15" d="M384.5,-114.48C384.5,-103.99 384.5,-85.51 384.5,-68.53"/>
<polygon fill="green" stroke="green" stroke-width="0.15" points="388,-69.01 384.5,-59.01 381,-69.01 388,-69.01"/>
</g>
<!-- Boar + Sus Score -->
<g id="node5" class="node">
<title>Boar + Sus Score</title>
<polygon fill="lightgray" stroke="black" points="316,-133.28 237,-133.28 237,-114.78 316,-114.78 316,-133.28"/>
<text text-anchor="middle" x="276.5" y="-120.73" font-family="Times,serif" font-size="9.00">Boar + Sus Score</text>
</g>
<!-- 0 Rolls -->
<g id="node6" class="node">
<title>0 Rolls</title>
<ellipse fill="lightblue" stroke="black" cx="276.5" cy="-29.34" rx="29.34" ry="29.34"/>
<text text-anchor="middle" x="276.5" y="-26.04" font-family="Times,serif" font-size="9.00">0 Rolls</text>
</g>
<!-- Boar + Sus Score&#45;&gt;0 Rolls -->
<g id="edge1" class="edge">
<title>Boar + Sus Score&#45;&gt;0 Rolls</title>
<path fill="none" stroke="green" stroke-width="0.18" d="M276.5,-114.48C276.5,-104.09 276.5,-85.85 276.5,-69.01"/>
<polygon fill="green" stroke="green" stroke-width="0.18" points="280,-69.05 276.5,-59.05 273,-69.06 280,-69.05"/>
</g>
<!-- Boar + Sus Score&#45;&gt;2 Rolls -->
<g id="edge5" class="edge">
<title>Boar + Sus Score&#45;&gt;2 Rolls</title>
<path fill="none" stroke="green" stroke-width="0.36" d="M268.93,-114.48C258.04,-102.17 237.4,-78.84 220.62,-59.87"/>
<polygon fill="green" stroke="green" stroke-width="0.36" points="223.31,-57.62 214.06,-52.45 218.06,-62.26 223.31,-57.62"/>
</g>
</g>
</svg>
